<svg xmlns="http://www.w3.org/2000/svg" xmlns:xlink="http://www.w3.org/1999/xlink" viewBox="0 0 1013.47 322"><defs><style>.a{fill:#00bd50;}.b{fill:url(#a);}.c{fill:#08582e;stroke:#00bd50;}.c,.f{stroke-miterlimit:10;stroke-width:2px;}.d{fill:#54957d;}.e{fill:#1b7050;}.f{stroke:#001504;fill:url(#b);}.g{fill:url(#c);}.h{fill:url(#d);}.i{fill:url(#e);}.j{fill:url(#f);}.k{fill:url(#g);}.l{fill:url(#h);}.m{fill:url(#i);}.n{fill:url(#j);}</style><linearGradient id="a" x1="413" y1="320" x2="413" y2="2" gradientUnits="userSpaceOnUse"><stop offset="0" stop-color="#034f0f"/><stop offset="0.05" stop-color="#034a0d"/><stop offset="0.33" stop-color="#013204"/><stop offset="0.5" stop-color="#012901"/><stop offset="0.65" stop-color="#012d06" stop-opacity="0.99"/><stop offset="0.81" stop-color="#013913" stop-opacity="0.96"/><stop offset="0.96" stop-color="#004c2a" stop-opacity="0.91"/><stop offset="1" stop-color="#005231" stop-opacity="0.9"/></linearGradient><linearGradient id="b" x1="842.51" y1="428.12" x2="1011.17" y2="428.12" gradientUnits="userSpaceOnUse"><stop offset="0" stop-color="#174753"/><stop offset="0.06" stop-color="#133e49"/><stop offset="0.21" stop-color="#0c2c35"/><stop offset="0.36" stop-color="#082228"/><stop offset="0.5" stop-color="#061e24"/><stop offset="0.64" stop-color="#082228"/><stop offset="0.79" stop-color="#0c2c35"/><stop offset="0.94" stop-color="#133e49"/><stop offset="1" stop-color="#174753"/></linearGradient><linearGradient id="c" x1="842.7" y1="428" x2="1011.35" y2="428" gradientUnits="userSpaceOnUse"><stop offset="0" stop-color="#174733"/><stop offset="0.07" stop-color="#113f25"/><stop offset="0.22" stop-color="#083211"/><stop offset="0.36" stop-color="#032b04"/><stop offset="0.5" stop-color="#012800"/><stop offset="0.64" stop-color="#032b04"/><stop offset="0.78" stop-color="#083211"/><stop offset="0.93" stop-color="#113f25"/><stop offset="1" stop-color="#174733"/></linearGradient><linearGradient id="d" x1="851.99" y1="554.63" x2="907.63" y2="554.63" gradientUnits="userSpaceOnUse"><stop offset="0" stop-color="#fff" stop-opacity="0.2"/><stop offset="1" stop-color="#fff" stop-opacity="0"/></linearGradient><linearGradient id="e" x1="915.68" y1="462.97" x2="937.86" y2="459.06" xlink:href="#d"/><linearGradient id="f" x1="1002.99" y1="334.75" x2="976.25" y2="334.75" xlink:href="#d"/><linearGradient id="g" x1="872.72" y1="372.69" x2="890.98" y2="361.28" gradientUnits="userSpaceOnUse"><stop offset="0" stop-color="#fff" stop-opacity="0.4"/><stop offset="1" stop-color="#fff" stop-opacity="0"/></linearGradient><linearGradient id="h" x1="852.43" y1="305.5" x2="872.5" y2="305.5" xlink:href="#g"/><linearGradient id="i" x1="957.23" y1="465.53" x2="1002.75" y2="465.53" xlink:href="#g"/><linearGradient id="j" x1="906.34" y1="468.63" x2="949.75" y2="468.63" xlink:href="#g"/></defs><title>keno_table1</title><rect class="a" width="826" height="322" rx="9" ry="9"/><rect class="b" x="2" y="2" width="822" height="318" rx="7" ry="7"/><path class="c" d="M53,282a3,3,0,0,0-3,3V582a3,3,0,0,0,6,0V285A3,3,0,0,0,53,282Z" transform="translate(-5 -273)"/><path class="d" d="M834.47,528s14.61-35.07,45.14-67.74c9.89-10.59,16.11-25.26,19.2-34.59,3.69-11.18,3.92-16.42,3.92-16.42s-40.5-8-59.27-51.18c-18-37.07-4.78-84.07-4.78-84.07h177.8V594h-182Zm68.06,52.47" transform="translate(-5 -273)"/><path class="e" d="M836.47,528s14.31-35.35,45.14-67.74c10.39-10.92,16.11-25.26,19.2-34.59,3.69-11.18,3.92-16.42,3.92-16.42s-40.5-8-59.27-51.18c-18-37.07-4.78-84.07-4.78-84.07h177.8V594h-182Zm68.06,52.47" transform="translate(-5 -273)"/><path class="f" d="M1010.68,320.33s0,0,0,0c-1,21.29-6.71,48.59-26,69.93-25.86,32.62-27.68,55.24-24.7,69.78,6,29.31,34.45,39.78,43,77.83a98.33,98.33,0,0,1-.14,42.21h-148c-4.37,0-7-4.59-7-10.27V539.41c0-5.68,3.55-10.29,7.92-10.29h84.82c2.83-1,5.35-3.48-1.35-9.59C909.08,492,901.61,468.81,907,431.87a128,128,0,0,1,8-28c-38.54-5.63-72.34-38.6-72.45-92.25a135.79,135.79,0,0,1,4.14-35.47h160.16a132.36,132.36,0,0,1,4.29,29.5A116.89,116.89,0,0,1,1010.68,320.33Z" transform="translate(-5 -273)"/><path class="g" d="M984.82,390.18C959,422.8,957.14,445.42,960.12,460c6,29.32,34.45,39.78,43,77.83A98.38,98.38,0,0,1,1003,580H855c-4.37,0-7-4.6-7-10.28V539.28c0-5.68,3.55-10.28,7.92-10.28h84.81c2.84-1,5.36-3.49-1.34-9.6-30.12-27.48-37.59-50.71-32.2-87.65a128.65,128.65,0,0,1,8-28c-38.54-5.63-72.33-38.6-72.44-92.25A135.29,135.29,0,0,1,846.84,276H1007a132.27,132.27,0,0,1,4.28,29.49,116.62,116.62,0,0,1-.4,14.57C1009.89,341.37,1004.21,368.78,984.82,390.18Z" transform="translate(-5 -273)"/><path class="h" d="M883.75,533H859.5s-7.5.25-7.5,5v31s-.5,7.25,6,7.25h.25s-.42-18.25,10-27.42C877.1,541,885.75,533,903,533Z" transform="translate(-5 -273)"/><path class="i" d="M920.5,415.17s-14,41.67,2.67,71c16.08,28.3,12,18.67,12,18.67s0-5.33,2.33-7.67,6.67-2.33,6.67-2.33-14.5-10-19.67-31.67c-4.43-18.58-3.83-24.33-4-31C920.34,425.66,920.5,415.17,920.5,415.17Z" transform="translate(-5 -273)"/><path class="j" d="M998,282.5s8,23,3.75,47.25S993.25,364,987,375.5L980.75,387a176.69,176.69,0,0,0,9-54.25c0-12.75-1.67-23.33-5.75-34a42.54,42.54,0,0,0-7.75-12.5Z" transform="translate(-5 -273)"/><path class="k" d="M854.25,333a108.82,108.82,0,0,0,14.25,32.88,70.08,70.08,0,0,0,17.28,17.41A137.84,137.84,0,0,0,914,398.13S891,380,881.38,362.88c-8.14-14.48-10.25-31.75-10.25-31.75Z" transform="translate(-5 -273)"/><path class="l" d="M855.5,284a92.34,92.34,0,0,0-3,20,212.45,212.45,0,0,0,.75,23L870,325.25a148.06,148.06,0,0,1,0-18.75c.67-8.33,2.5-18.75,2.5-18.75Z" transform="translate(-5 -273)"/><path class="m" d="M982.17,393s-9.42,11.6-14.5,21.83c-5.67,11.42-8.67,20.38-9.17,31s1.83,19.83,4.5,25a146.85,146.85,0,0,0,9.81,16c4.12,5.25,10.12,12.51,13.44,17.13,3.69,5.13,4.25,4.92,9.25,14.75a97.71,97.71,0,0,1,7.25,19.31s-4.66-12.42-6.37-15.75c-2.06-4-6.67-12.52-10.5-17.19s-12.75-15.52-15.75-20.19-6.69-8.5-10.37-20.31c-3.46-11.08-3.06-20.08-.56-29.75s7.5-21.25,11.5-26.75S982.17,393,982.17,393Z" transform="translate(-5 -273)"/><path class="n" d="M916.19,404.19s-3.37,10.5-5.37,19.75c-2.69,12.46-3.82,21.29-3.06,31.9a82.88,82.88,0,0,0,5.5,23.92,104.55,104.55,0,0,0,9.69,17.94c4,5.36,9.56,11.06,13.31,15.31,4.18,4.73,1.25-9.08,6.25.75a97.71,97.71,0,0,1,7.25,19.31s-4.66-12.42-6.37-15.75c-2.06-4-3.36,1.21-7.5-3.19S924.81,503,920,495.63c-3-4.65-6.56-10.19-10.25-22a72.08,72.08,0,0,1-3-30,133.24,133.24,0,0,1,4.25-24C912.57,413.92,916.19,404.19,916.19,404.19Z" transform="translate(-5 -273)"/></svg>